# xmcd CD database file
#
# Track frame offsets:
#	150
#	25759
#	45902
#	65800
#	90005
#	109132
#	130128
#	156540
#	175194
#	198685
#	223844
#	249952
#	272175
#
# Disc length: 4028 seconds
#
# Revision: 0
# Processed by: cddbd v1.5.2PL0 Copyright (c) Steve Scherf et al.
# Submitted via: CDex 1.70beta2
#
DISCID=b60fba0d
DTITLE=Charlie Haden Quartet West - Sophisticated Ladies
DYEAR=2010
DGENRE=Jazz
TTITLE0=If I'm Lucky
TTITLE1=Sophisticated Lady
TTITLE2=Ill Wind
TTITLE3=Today I Am A Man
TTITLE4=My Love And I
TTITLE5=Theme From "Markham"
TTITLE6=Let's Call It A Day
TTITLE7=Angel Face
TTITLE8=A Love Like This
TTITLE9=My Old Flame
TTITLE10=Goodbye
TTITLE11=Wahoo
TTITLE12=Broken Shadows
EXTD=YEAR: 2010
EXTT0=
EXTT1=
EXTT2=
EXTT3=
EXTT4=
EXTT5=
EXTT6=
EXTT7=
EXTT8=
EXTT9=
EXTT10=
EXTT11=
EXTT12=
PLAYORDER=
